<?xml version="1.0" encoding="UTF-8" standalone="no"?>
<!-- Created with Inkscape (http://www.inkscape.org/) -->

<svg
   xmlns:dc="http://purl.org/dc/elements/1.1/"
   xmlns:cc="http://creativecommons.org/ns#"
   xmlns:rdf="http://www.w3.org/1999/02/22-rdf-syntax-ns#"
   xmlns:svg="http://www.w3.org/2000/svg"
   xmlns="http://www.w3.org/2000/svg"
   xmlns:xlink="http://www.w3.org/1999/xlink"
   xmlns:sodipodi="http://sodipodi.sourceforge.net/DTD/sodipodi-0.dtd"
   xmlns:inkscape="http://www.inkscape.org/namespaces/inkscape"
   width="515.72693"
   height="207.14844"
   id="svg2"
   sodipodi:version="0.32"
   inkscape:version="0.48.3.1 r9886"
   version="1.0"
   sodipodi:docname="2user.svg"
   inkscape:output_extension="org.inkscape.output.svg.inkscape">
  <sodipodi:namedview
     id="base"
     pagecolor="#ffffff"
     bordercolor="#666666"
     borderopacity="1.0"
     gridtolerance="10000"
     guidetolerance="10"
     objecttolerance="10"
     inkscape:pageopacity="0.0"
     inkscape:pageshadow="2"
     inkscape:zoom="1.979899"
     inkscape:cx="297.38546"
     inkscape:cy="116.23183"
     inkscape:document-units="px"
     inkscape:current-layer="layer1"
     showgrid="true"
     inkscape:snap-global="true"
     inkscape:window-width="1920"
     inkscape:window-height="1025"
     inkscape:window-x="-2"
     inkscape:window-y="-3"
     inkscape:window-maximized="1">
    <inkscape:grid
       enabled="true"
       visible="true"
       id="grid2383"
       type="xygrid" />
  </sodipodi:namedview>
  <defs
     id="defs4">
    <inkscape:perspective
       id="perspective10"
       inkscape:persp3d-origin="372.04724 : 350.78739 : 1"
       inkscape:vp_z="744.09448 : 526.18109 : 1"
       inkscape:vp_y="0 : 1000 : 0"
       inkscape:vp_x="0 : 526.18109 : 1"
       sodipodi:type="inkscape:persp3d" />
  </defs>
  <metadata
     id="metadata7">
    <rdf:RDF>
      <cc:Work
         rdf:about="">
        <dc:format>image/svg+xml</dc:format>
        <dc:type
           rdf:resource="http://purl.org/dc/dcmitype/StillImage" />
        <dc:title></dc:title>
      </cc:Work>
    </rdf:RDF>
  </metadata>
  <g
     transform="translate(-40.431517,-232.82343)"
     id="layer1"
     inkscape:groupmode="layer"
     inkscape:label="Layer 1">
    <path
       transform="translate(173.85345,7.8890733)"
       d="m 220,237.36218 c 0,2.76143 -2.23858,5 -5,5 -2.76142,0 -5,-2.23857 -5,-5 0,-2.76142 2.23858,-5 5,-5 2.76142,0 5,2.23858 5,5 z"
       sodipodi:ry="5"
       sodipodi:rx="5"
       sodipodi:cy="237.36218"
       sodipodi:cx="215"
       id="path2389"
       style="fill:#000000;fill-opacity:1;stroke:#000000;stroke-width:2;stroke-linejoin:miter;stroke-miterlimit:4;stroke-dasharray:none"
       sodipodi:type="arc" />
    <path
       transform="translate(173.85345,37.889073)"
       d="m 220,237.36218 c 0,2.76143 -2.23858,5 -5,5 -2.76142,0 -5,-2.23857 -5,-5 0,-2.76142 2.23858,-5 5,-5 2.76142,0 5,2.23858 5,5 z"
       sodipodi:ry="5"
       sodipodi:rx="5"
       sodipodi:cy="237.36218"
       sodipodi:cx="215"
       id="path2391"
       style="fill:#000000;fill-opacity:1;stroke:#000000;stroke-width:2;stroke-linejoin:miter;stroke-miterlimit:4;stroke-dasharray:none"
       sodipodi:type="arc" />
    <path
       transform="translate(173.85345,67.889073)"
       d="m 220,237.36218 c 0,2.76143 -2.23858,5 -5,5 -2.76142,0 -5,-2.23857 -5,-5 0,-2.76142 2.23858,-5 5,-5 2.76142,0 5,2.23858 5,5 z"
       sodipodi:ry="5"
       sodipodi:rx="5"
       sodipodi:cy="237.36218"
       sodipodi:cx="215"
       id="path2393"
       style="fill:#000000;fill-opacity:1;stroke:#000000;stroke-width:2;stroke-linejoin:miter;stroke-miterlimit:4;stroke-dasharray:none"
       sodipodi:type="arc" />
    <path
       transform="translate(173.85345,97.889073)"
       d="m 220,237.36218 c 0,2.76143 -2.23858,5 -5,5 -2.76142,0 -5,-2.23857 -5,-5 0,-2.76142 2.23858,-5 5,-5 2.76142,0 5,2.23858 5,5 z"
       sodipodi:ry="5"
       sodipodi:rx="5"
       sodipodi:cy="237.36218"
       sodipodi:cx="215"
       id="path2395"
       style="fill:#000000;fill-opacity:1;stroke:#000000;stroke-width:2;stroke-linejoin:miter;stroke-miterlimit:4;stroke-dasharray:none"
       sodipodi:type="arc" />
    <path
       transform="translate(173.85345,127.88907)"
       d="m 220,237.36218 c 0,2.76143 -2.23858,5 -5,5 -2.76142,0 -5,-2.23857 -5,-5 0,-2.76142 2.23858,-5 5,-5 2.76142,0 5,2.23858 5,5 z"
       sodipodi:ry="5"
       sodipodi:rx="5"
       sodipodi:cy="237.36218"
       sodipodi:cx="215"
       id="path2397"
       style="fill:#000000;fill-opacity:1;stroke:#000000;stroke-width:2;stroke-linejoin:miter;stroke-miterlimit:4;stroke-dasharray:none"
       sodipodi:type="arc" />
    <path
       transform="translate(173.85345,157.88907)"
       d="m 220,237.36218 c 0,2.76143 -2.23858,5 -5,5 -2.76142,0 -5,-2.23857 -5,-5 0,-2.76142 2.23858,-5 5,-5 2.76142,0 5,2.23858 5,5 z"
       sodipodi:ry="5"
       sodipodi:rx="5"
       sodipodi:cy="237.36218"
       sodipodi:cx="215"
       id="path2399"
       style="fill:#000000;fill-opacity:1;stroke:#000000;stroke-width:2;stroke-linejoin:miter;stroke-miterlimit:4;stroke-dasharray:none"
       sodipodi:type="arc" />
    <path
       transform="translate(173.85345,187.88907)"
       d="m 220,237.36218 c 0,2.76143 -2.23858,5 -5,5 -2.76142,0 -5,-2.23857 -5,-5 0,-2.76142 2.23858,-5 5,-5 2.76142,0 5,2.23858 5,5 z"
       sodipodi:ry="5"
       sodipodi:rx="5"
       sodipodi:cy="237.36218"
       sodipodi:cx="215"
       id="path2401"
       style="fill:#000000;fill-opacity:1;stroke:#000000;stroke-width:2;stroke-linejoin:miter;stroke-miterlimit:4;stroke-dasharray:none"
       sodipodi:type="arc" />
    <rect
       y="240.25125"
       x="518.85345"
       height="10"
       width="10"
       id="rect2403"
       style="fill:#000000;fill-opacity:1;stroke:#000000;stroke-width:2;stroke-linejoin:miter;stroke-miterlimit:4;stroke-dasharray:none" />
    <rect
       y="330.25125"
       x="518.85345"
       height="10"
       width="10"
       id="rect2405"
       style="fill:#000000;fill-opacity:1;stroke:#000000;stroke-width:2;stroke-linejoin:miter;stroke-miterlimit:4;stroke-dasharray:none" />
    <rect
       y="420.25125"
       x="518.85345"
       height="10"
       width="10"
       id="rect2407"
       style="fill:#000000;fill-opacity:1;stroke:#000000;stroke-width:2;stroke-linejoin:miter;stroke-miterlimit:4;stroke-dasharray:none" />
    <path
       sodipodi:nodetypes="cc"
       inkscape:connection-end="#rect2403"
       inkscape:connection-start="#path2389"
       inkscape:connector-type="polyline"
       id="path2409"
       d="m 393.85345,245.25126 125,-1e-5"
       style="fill:none;stroke:#000000;stroke-width:1px;stroke-linecap:butt;stroke-linejoin:miter;stroke-opacity:1"
       inkscape:connection-start-point="d4"
       inkscape:connection-end-point="d4"
       inkscape:connector-curvature="0" />
    <path
       sodipodi:nodetypes="cc"
       inkscape:connection-end="#rect2405"
       inkscape:connection-start="#path2391"
       inkscape:connector-type="polyline"
       id="path2411"
       d="m 393.42365,277.28245 125.4298,55.74658"
       style="fill:none;stroke:#000000;stroke-width:1px;stroke-linecap:butt;stroke-linejoin:miter;stroke-opacity:1"
       inkscape:connection-start-point="d4"
       inkscape:connection-end-point="d4"
       inkscape:connector-curvature="0" />
    <path
       sodipodi:nodetypes="cc"
       inkscape:connection-end="#rect2407"
       inkscape:connection-start="#path2401"
       inkscape:connector-type="polyline"
       id="path2413"
       d="m 393.85345,425.25125 125,0"
       style="fill:none;stroke:#000000;stroke-width:1px;stroke-linecap:butt;stroke-linejoin:miter;stroke-opacity:1"
       inkscape:connection-start-point="d4"
       inkscape:connection-end-point="d4"
       inkscape:connector-curvature="0" />
    <path
       sodipodi:nodetypes="cc"
       inkscape:connection-end="#rect2407"
       inkscape:connection-start="#path2399"
       inkscape:connector-type="polyline"
       id="path2415"
       d="m 393.73543,396.33614 125.11802,27.804"
       style="fill:none;stroke:#000000;stroke-width:1px;stroke-linecap:butt;stroke-linejoin:miter;stroke-opacity:1"
       inkscape:connection-start-point="d4"
       inkscape:connection-end-point="d4"
       inkscape:connector-curvature="0" />
    <path
       sodipodi:nodetypes="cc"
       inkscape:connection-end="#rect2405"
       inkscape:connection-start="#path2397"
       inkscape:connector-type="polyline"
       id="path2417"
       d="M 393.73543,364.16637 518.85345,336.36236"
       style="fill:none;stroke:#000000;stroke-width:1px;stroke-linecap:butt;stroke-linejoin:miter;stroke-opacity:1"
       inkscape:connection-start-point="d4"
       inkscape:connection-end-point="d4"
       inkscape:connector-curvature="0" />
    <path
       sodipodi:nodetypes="cc"
       inkscape:connection-end="#rect2405"
       inkscape:connection-start="#path2395"
       inkscape:connector-type="polyline"
       id="path2419"
       d="m 393.85345,335.25126 125,-10e-6"
       style="fill:none;stroke:#000000;stroke-width:1px;stroke-linecap:butt;stroke-linejoin:miter;stroke-opacity:1"
       inkscape:connection-start-point="d4"
       inkscape:connection-end-point="d4"
       inkscape:connector-curvature="0" />
    <path
       sodipodi:nodetypes="cc"
       inkscape:connection-end="#rect2407"
       inkscape:connection-start="#path2395"
       inkscape:connector-type="polyline"
       id="path2421"
       d="m 393.01414,338.02505 125.83931,83.89287"
       style="fill:none;stroke:#000000;stroke-width:1px;stroke-linecap:butt;stroke-linejoin:miter;stroke-opacity:1"
       inkscape:connection-start-point="d4"
       inkscape:connection-end-point="d4"
       inkscape:connector-curvature="0" />
    <path
       inkscape:connection-end="#rect2403"
       inkscape:connection-start="#rect2403"
       inkscape:connector-type="polyline"
       id="path2425"
       d="m 523.85345,245.25125 0,0"
       style="fill:none;stroke:#000000;stroke-width:1px;stroke-linecap:butt;stroke-linejoin:miter;stroke-opacity:1"
       inkscape:connection-start-point="d4"
       inkscape:connection-end-point="d4"
       inkscape:connector-curvature="0" />
    <path
       sodipodi:nodetypes="cc"
       inkscape:connection-end="#rect2403"
       inkscape:connection-start="#path2395"
       inkscape:connector-type="polyline"
       id="path2427"
       d="M 393.01414,332.47746 518.85345,248.58458"
       style="fill:none;stroke:#000000;stroke-width:1px;stroke-linecap:butt;stroke-linejoin:miter;stroke-opacity:1"
       inkscape:connection-start-point="d4"
       inkscape:connection-end-point="d4"
       inkscape:connector-curvature="0" />
    <path
       sodipodi:nodetypes="cc"
       inkscape:connection-end="#rect2403"
       inkscape:connection-start="#path2393"
       inkscape:connector-type="polyline"
       id="path2429"
       d="m 393.42365,303.22006 125.4298,-55.74659"
       style="fill:none;stroke:#000000;stroke-width:1px;stroke-linecap:butt;stroke-linejoin:miter;stroke-opacity:1"
       inkscape:connection-start-point="d4"
       inkscape:connection-end-point="d4"
       inkscape:connector-curvature="0" />
    <path
       sodipodi:nodetypes="cc"
       inkscape:connection-end="#rect2405"
       inkscape:connection-start="#path2399"
       inkscape:connector-type="polyline"
       id="path2433"
       d="m 393.42365,393.22005 125.4298,-55.74658"
       style="fill:none;stroke:#000000;stroke-width:1px;stroke-linecap:butt;stroke-linejoin:miter;stroke-opacity:1"
       inkscape:connection-start-point="d4"
       inkscape:connection-end-point="d4"
       inkscape:connector-curvature="0" />
    <path
       sodipodi:nodetypes="cc"
       inkscape:connection-start="#rect2403"
       inkscape:connector-type="polyline"
       id="path2435"
       d="m 519.35345,250.25125 -130.5,145"
       style="fill:none;stroke:#000000;stroke-width:1px;stroke-linecap:butt;stroke-linejoin:miter;stroke-opacity:1"
       inkscape:connection-start-point="d4"
       inkscape:connector-curvature="0" />
    <path
       sodipodi:nodetypes="cc"
       inkscape:connection-end="#rect2403"
       inkscape:connection-start="#path2401"
       inkscape:connector-type="polyline"
       id="path2437"
       d="M 391.85363,421.25102 520.10345,250.25125"
       style="fill:none;stroke:#000000;stroke-width:1px;stroke-linecap:butt;stroke-linejoin:miter;stroke-opacity:1"
       inkscape:connection-start-point="d4"
       inkscape:connection-end-point="d4"
       inkscape:connector-curvature="0" />
    <rect
       y="239.97188"
       x="305.43152"
       height="10"
       width="10"
       id="rect11177"
       style="fill:#000000;fill-opacity:1;stroke:#000000;stroke-width:2;stroke-linejoin:miter;stroke-miterlimit:4;stroke-dasharray:none" />
    <rect
       y="269.97186"
       x="305.43152"
       height="10"
       width="10"
       id="rect11179"
       style="fill:#000000;fill-opacity:1;stroke:#000000;stroke-width:2;stroke-linejoin:miter;stroke-miterlimit:4;stroke-dasharray:none" />
    <rect
       y="299.97186"
       x="305.43152"
       height="10"
       width="10"
       id="rect11181"
       style="fill:#000000;fill-opacity:1;stroke:#000000;stroke-width:2;stroke-linejoin:miter;stroke-miterlimit:4;stroke-dasharray:none" />
    <rect
       y="329.97186"
       x="305.43152"
       height="10"
       width="10"
       id="rect11183"
       style="fill:#000000;fill-opacity:1;stroke:#000000;stroke-width:2;stroke-linejoin:miter;stroke-miterlimit:4;stroke-dasharray:none" />
    <rect
       y="359.97186"
       x="305.43152"
       height="10"
       width="10"
       id="rect11185"
       style="fill:#000000;fill-opacity:1;stroke:#000000;stroke-width:2;stroke-linejoin:miter;stroke-miterlimit:4;stroke-dasharray:none" />
    <rect
       y="419.97186"
       x="305.43152"
       height="10"
       width="10"
       id="rect11187"
       style="fill:#000000;fill-opacity:1;stroke:#000000;stroke-width:2;stroke-linejoin:miter;stroke-miterlimit:4;stroke-dasharray:none" />
    <rect
       y="389.97186"
       x="305.43152"
       height="10"
       width="10"
       id="rect11189"
       style="fill:#000000;fill-opacity:1;stroke:#000000;stroke-width:2;stroke-linejoin:miter;stroke-miterlimit:4;stroke-dasharray:none" />
    <path
       sodipodi:nodetypes="cc"
       inkscape:connector-type="polyline"
       id="path11191"
       d="m 310.43151,244.97187 80,0"
       style="fill:none;stroke:#000000;stroke-width:1px;stroke-linecap:butt;stroke-linejoin:miter;stroke-opacity:1"
       inkscape:connector-curvature="0" />
    <path
       sodipodi:nodetypes="cc"
       inkscape:connector-type="polyline"
       id="path11193"
       d="m 385.43151,274.97187 -75,0"
       style="fill:none;stroke:#000000;stroke-width:1px;stroke-linecap:butt;stroke-linejoin:miter;stroke-opacity:1"
       inkscape:connector-curvature="0" />
    <path
       sodipodi:nodetypes="cc"
       inkscape:connector-type="polyline"
       id="path11195"
       d="m 310.43151,394.97187 80,0"
       style="fill:none;stroke:#000000;stroke-width:1px;stroke-linecap:butt;stroke-linejoin:miter;stroke-opacity:1"
       inkscape:connector-curvature="0" />
    <path
       sodipodi:nodetypes="cc"
       inkscape:connector-type="polyline"
       id="path11197"
       d="m 390.43151,424.97187 -80,0"
       style="fill:none;stroke:#000000;stroke-width:1px;stroke-linecap:butt;stroke-linejoin:miter;stroke-opacity:1"
       inkscape:connector-curvature="0" />
    <path
       sodipodi:nodetypes="cc"
       inkscape:connector-type="polyline"
       id="path11199"
       d="m 390.43151,334.97187 -80,0"
       style="fill:none;stroke:#000000;stroke-width:1px;stroke-linecap:butt;stroke-linejoin:miter;stroke-opacity:1"
       inkscape:connector-curvature="0" />
    <path
       sodipodi:nodetypes="cc"
       inkscape:connector-type="polyline"
       id="path11201"
       d="m 310.43151,304.97187 80,0"
       style="fill:none;stroke:#000000;stroke-width:1px;stroke-linecap:butt;stroke-linejoin:miter;stroke-opacity:1"
       inkscape:connector-curvature="0" />
    <path
       sodipodi:nodetypes="cc"
       inkscape:connector-type="polyline"
       id="path11203"
       d="m 390.43151,364.97187 -80,0"
       style="fill:none;stroke:#000000;stroke-width:1px;stroke-linecap:butt;stroke-linejoin:miter;stroke-opacity:1"
       inkscape:connector-curvature="0" />
    <use
       x="0"
       y="0"
       xlink:href="#path2389"
       id="use4551"
       transform="matrix(-1,0,0,1,615.86303,-2.4999999e-6)"
       width="515.72693"
       height="207.14844" />
    <use
       x="0"
       y="0"
       xlink:href="#path2391"
       id="use4553"
       transform="matrix(-1,0,0,1,615.86303,-2.4999999e-6)"
       width="515.72693"
       height="207.14844" />
    <use
       x="0"
       y="0"
       xlink:href="#path2393"
       id="use4555"
       transform="matrix(-1,0,0,1,615.86303,-2.4999999e-6)"
       width="515.72693"
       height="207.14844" />
    <use
       x="0"
       y="0"
       xlink:href="#path2395"
       id="use4557"
       transform="matrix(-1,0,0,1,615.86303,-2.4999999e-6)"
       width="515.72693"
       height="207.14844" />
    <use
       x="0"
       y="0"
       xlink:href="#path2397"
       id="use4559"
       transform="matrix(-1,0,0,1,615.86303,-2.4999999e-6)"
       width="515.72693"
       height="207.14844" />
    <use
       x="0"
       y="0"
       xlink:href="#path2399"
       id="use4561"
       transform="matrix(-1,0,0,1,615.86303,-2.4999999e-6)"
       width="515.72693"
       height="207.14844" />
    <use
       x="0"
       y="0"
       xlink:href="#path2401"
       id="use4563"
       transform="matrix(-1,0,0,1,615.86303,-2.4999999e-6)"
       width="515.72693"
       height="207.14844" />
    <use
       x="0"
       y="0"
       xlink:href="#rect2403"
       id="use4565"
       transform="matrix(-1,0,0,1,615.86303,-2.4999999e-6)"
       width="515.72693"
       height="207.14844" />
    <use
       x="0"
       y="0"
       xlink:href="#rect2405"
       id="use4567"
       transform="matrix(-1,0,0,1,615.86303,-2.4999999e-6)"
       width="515.72693"
       height="207.14844" />
    <use
       x="0"
       y="0"
       xlink:href="#rect2407"
       id="use4569"
       transform="matrix(-1,0,0,1,615.86303,-2.4999999e-6)"
       width="515.72693"
       height="207.14844" />
    <use
       x="0"
       y="0"
       xlink:href="#path2409"
       id="use4571"
       transform="matrix(-1,0,0,1,615.86303,-2.4999999e-6)"
       width="515.72693"
       height="207.14844" />
    <use
       x="0"
       y="0"
       xlink:href="#path2411"
       id="use4573"
       transform="matrix(-1,0,0,1,615.86303,-2.4999999e-6)"
       width="515.72693"
       height="207.14844" />
    <use
       x="0"
       y="0"
       xlink:href="#path2413"
       id="use4575"
       transform="matrix(-1,0,0,1,615.86303,-2.4999999e-6)"
       width="515.72693"
       height="207.14844" />
    <use
       x="0"
       y="0"
       xlink:href="#path2415"
       id="use4577"
       transform="matrix(-1,0,0,1,615.86303,-2.4999999e-6)"
       width="515.72693"
       height="207.14844" />
    <use
       x="0"
       y="0"
       xlink:href="#path2417"
       id="use4579"
       transform="matrix(-1,0,0,1,615.86303,-2.4999999e-6)"
       width="515.72693"
       height="207.14844" />
    <use
       x="0"
       y="0"
       xlink:href="#path2419"
       id="use4581"
       transform="matrix(-1,0,0,1,615.86303,-2.4999999e-6)"
       width="515.72693"
       height="207.14844" />
    <use
       x="0"
       y="0"
       xlink:href="#path2421"
       id="use4583"
       transform="matrix(-1,0,0,1,615.86303,-2.4999999e-6)"
       width="515.72693"
       height="207.14844" />
    <use
       x="0"
       y="0"
       xlink:href="#path2425"
       id="use4585"
       transform="matrix(-1,0,0,1,615.86303,-2.4999999e-6)"
       width="515.72693"
       height="207.14844" />
    <use
       x="0"
       y="0"
       xlink:href="#path2427"
       id="use4587"
       transform="matrix(-1,0,0,1,615.86303,-2.4999999e-6)"
       width="515.72693"
       height="207.14844" />
    <use
       x="0"
       y="0"
       xlink:href="#path2429"
       id="use4589"
       transform="matrix(-1,0,0,1,615.86303,-2.4999999e-6)"
       width="515.72693"
       height="207.14844" />
    <use
       x="0"
       y="0"
       xlink:href="#path2433"
       id="use4591"
       transform="matrix(-1,0,0,1,615.86303,-2.4999999e-6)"
       width="515.72693"
       height="207.14844" />
    <use
       x="0"
       y="0"
       xlink:href="#path2437"
       id="use4595"
       transform="matrix(-1,0,0,1,615.86303,-2.4999999e-6)"
       width="515.72693"
       height="207.14844" />
    <use
       x="0"
       y="0"
       xlink:href="#path11191"
       id="use4611"
       transform="matrix(-1,0,0,1,615.86303,-2.4999999e-6)"
       width="515.72693"
       height="207.14844" />
    <use
       x="0"
       y="0"
       xlink:href="#path11193"
       id="use4613"
       transform="matrix(-1,0,0,1,615.86303,-2.4999999e-6)"
       width="515.72693"
       height="207.14844" />
    <use
       x="0"
       y="0"
       xlink:href="#path11195"
       id="use4615"
       transform="matrix(-1,0,0,1,615.86303,-2.4999999e-6)"
       width="515.72693"
       height="207.14844" />
    <use
       x="0"
       y="0"
       xlink:href="#path11197"
       id="use4617"
       transform="matrix(-1,0,0,1,615.86303,-2.4999999e-6)"
       width="515.72693"
       height="207.14844" />
    <use
       x="0"
       y="0"
       xlink:href="#path11199"
       id="use4619"
       transform="matrix(-1,0,0,1,615.86303,-2.4999999e-6)"
       width="515.72693"
       height="207.14844" />
    <use
       x="0"
       y="0"
       xlink:href="#path11201"
       id="use4621"
       transform="matrix(-1,0,0,1,615.86303,-2.4999999e-6)"
       width="515.72693"
       height="207.14844" />
    <use
       x="0"
       y="0"
       xlink:href="#path11203"
       id="use4623"
       transform="matrix(-1,0,0,1,615.86303,-2.4999999e-6)"
       width="515.72693"
       height="207.14844" />
    <path
       style="fill:none;stroke:#000000;stroke-width:1px;stroke-linecap:butt;stroke-linejoin:miter;stroke-opacity:1"
       d="m 50,12.148438 130,0"
       id="path3152"
       inkscape:connector-curvature="0"
       transform="translate(40.431517,232.82343)" />
    <path
       style="fill:none;stroke:#000000;stroke-width:1px;stroke-linecap:butt;stroke-linejoin:miter;stroke-opacity:1"
       d="m 50,102.14844 135,0"
       id="path3154"
       inkscape:connector-curvature="0"
       transform="translate(40.431517,232.82343)" />
    <path
       style="fill:none;stroke:#000000;stroke-width:1px;stroke-linecap:butt;stroke-linejoin:miter;stroke-opacity:1"
       d="m 55,192.14844 130,0 0,0 L 55,12.148438"
       id="path3156"
       inkscape:connector-curvature="0"
       transform="translate(40.431517,232.82343)" />
    <path
       style="fill:none;stroke:#000000;stroke-width:1px;stroke-linecap:butt;stroke-linejoin:miter;stroke-opacity:1"
       d="m 50,192.14844 135,-30 L 55,12.148438"
       id="path3158"
       inkscape:connector-curvature="0"
       transform="translate(40.431517,232.82343)" />
    <path
       style="fill:none;stroke:#000000;stroke-width:1px;stroke-linecap:butt;stroke-linejoin:miter;stroke-opacity:1"
       d="m 185,162.14844 -130,-60"
       id="path3160"
       inkscape:connector-curvature="0"
       transform="translate(40.431517,232.82343)" />
    <path
       style="fill:none;stroke:#000000;stroke-width:1px;stroke-linecap:butt;stroke-linejoin:miter;stroke-opacity:1"
       d="m 185,132.14844 -130,-30"
       id="path3162"
       inkscape:connector-curvature="0"
       transform="translate(40.431517,232.82343)" />
    <path
       style="fill:none;stroke:#000000;stroke-width:1px;stroke-linecap:butt;stroke-linejoin:miter;stroke-opacity:1"
       d="M 185,72.148437 50,12.148438"
       id="path3164"
       inkscape:connector-curvature="0"
       transform="translate(40.431517,232.82343)" />
    <path
       style="fill:none;stroke:#000000;stroke-width:1px;stroke-linecap:butt;stroke-linejoin:miter;stroke-opacity:1"
       d="M 185,42.148437 55,102.14844"
       id="path3166"
       inkscape:connector-curvature="0"
       transform="translate(40.431517,232.82343)" />
    <path
       style="fill:none;stroke:#000000;stroke-width:1px;stroke-linecap:butt;stroke-linejoin:miter;stroke-opacity:1"
       d="m 55,12.148438 130,90.000002 -130,90"
       id="path3168"
       inkscape:connector-curvature="0"
       transform="translate(40.431517,232.82343)" />
  </g>
</svg>
